<svg width="375" height="812" viewBox="0 0 375 812" fill="none" xmlns="http://www.w3.org/2000/svg">
<g clip-path="url(#clip0_0_12718)">
<rect width="375" height="812" fill="white"/>
<path d="M532.592 737.646C626.561 868.528 384.573 901.354 278.768 866.976C172.963 832.598 115.061 718.957 149.439 613.152C183.817 507.347 290.971 487.269 389.928 510.907C488.885 534.546 438.623 606.764 532.592 737.646Z" fill="#F2F5FE"/>
<path d="M350.132 392.879C302.333 420.118 299.823 336.772 315.273 302.07C330.724 267.368 371.381 251.761 406.083 267.211C440.785 282.662 456.392 323.319 440.941 358.021C425.491 392.723 397.931 365.641 350.132 392.879Z" fill="#004BFE"/>
<path d="M201.008 266.33C161.149 422.443 -19.5441 258.17 -61.2191 155.021C-102.894 51.8718 -53.0593 -65.5313 50.0897 -107.206C153.239 -148.881 237.498 -79.7022 282.998 11.2978C328.498 102.298 240.867 110.216 201.008 266.33Z" fill="#D9E4FF"/>
<path d="M42.9996 -131.222C138.438 -261.036 244.435 -41.0359 244.435 70.214C244.435 181.464 154.25 271.65 42.9996 271.65C-68.2502 271.65 -158.436 181.464 -158.436 70.214C-158.436 -41.0359 -52.4385 -1.40715 42.9996 -131.222Z" fill="#004BFE"/>
<rect x="121" y="798" width="134" height="5" rx="2.5" fill="black"/>
<g clip-path="url(#clip1_0_12718)">
<g clip-path="url(#clip2_0_12718)">
<g clip-path="url(#clip3_0_12718)">
<mask id="mask0_0_12718" style="mask-type:alpha" maskUnits="userSpaceOnUse" x="336" y="17" width="22" height="12">
<path d="M338.667 17.333H355.333C356.806 17.333 358 18.5269 358 19.9997V25.9997C358 27.4724 356.806 28.6663 355.333 28.6663H338.667C337.194 28.6663 336 27.4724 336 25.9997V19.9997C336 18.5269 337.194 17.333 338.667 17.333Z" fill="black"/>
</mask>
<g mask="url(#mask0_0_12718)">
<path d="M338.667 17.333H355.333V17.333C356.806 17.333 358 18.5269 358 19.9997V25.9997V25.9997C358 27.4724 356.806 28.6663 355.333 28.6663H338.667V28.6663C337.194 28.6663 336 27.4724 336 25.9997V19.9997V19.9997C336 18.5269 337.194 17.333 338.667 17.333Z" stroke="black" stroke-opacity="0.34902" stroke-width="2"/>
</g>
</g>
<mask id="mask1_0_12718" style="mask-type:alpha" maskUnits="userSpaceOnUse" x="359" y="21" width="2" height="4">
<path d="M359 21V25C359.805 24.6612 360.328 23.8731 360.328 23C360.328 22.1269 359.805 21.3388 359 21Z" fill="black"/>
</mask>
<g mask="url(#mask1_0_12718)">
<path d="M354 16H365.328V30H354V16Z" fill="black" fill-opacity="0.4"/>
</g>
<mask id="mask2_0_12718" style="mask-type:alpha" maskUnits="userSpaceOnUse" x="338" y="19" width="18" height="8">
<path d="M339.333 19.333H354.667C355.403 19.333 356 19.93 356 20.6663V25.333C356 26.0694 355.403 26.6663 354.667 26.6663H339.333C338.597 26.6663 338 26.0694 338 25.333V20.6663C338 19.93 338.597 19.333 339.333 19.333Z" fill="black"/>
</mask>
<g mask="url(#mask2_0_12718)">
<path d="M333 14.333H361V31.6663H333V14.333Z" fill="black"/>
</g>
</g>
<g clip-path="url(#clip4_0_12718)">
<g clip-path="url(#clip5_0_12718)">
<mask id="mask3_0_12718" style="mask-type:luminance" maskUnits="userSpaceOnUse" x="315" y="17" width="16" height="12">
<path fill-rule="evenodd" clip-rule="evenodd" d="M323.331 19.6084C325.547 19.6085 327.678 20.4599 329.284 21.9867C329.405 22.1046 329.598 22.1031 329.717 21.9834L330.873 20.8167C330.933 20.756 330.967 20.6737 330.966 20.5882C330.966 20.5026 330.931 20.4207 330.87 20.3607C326.655 16.3212 320.005 16.3212 315.79 20.3607C315.729 20.4207 315.695 20.5025 315.694 20.5881C315.694 20.6737 315.727 20.7559 315.787 20.8167L316.944 21.9834C317.063 22.1033 317.256 22.1048 317.377 21.9867C318.983 20.4598 321.115 19.6084 323.331 19.6084ZM323.331 23.404C324.548 23.404 325.722 23.8565 326.625 24.6737C326.747 24.7897 326.939 24.7872 327.058 24.668L328.213 23.5014C328.274 23.4402 328.307 23.3572 328.306 23.2709C328.306 23.1846 328.27 23.1023 328.208 23.0424C325.46 20.486 321.204 20.486 318.456 23.0424C318.394 23.1023 318.358 23.1847 318.357 23.271C318.357 23.3573 318.391 23.4403 318.451 23.5014L319.606 24.668C319.725 24.7872 319.917 24.7897 320.039 24.6737C320.941 23.857 322.114 23.4045 323.331 23.404ZM325.55 26.1884C325.612 26.1278 325.646 26.0444 325.644 25.9579C325.642 25.8714 325.605 25.7894 325.54 25.7314C324.265 24.6525 322.397 24.6525 321.121 25.7314C321.057 25.7894 321.019 25.8713 321.018 25.9578C321.016 26.0443 321.05 26.1277 321.111 26.1884L323.109 28.2041C323.168 28.2633 323.247 28.2966 323.331 28.2966C323.414 28.2966 323.494 28.2633 323.552 28.2041L325.55 26.1884Z" fill="white"/>
</mask>
<g mask="url(#mask3_0_12718)">
<path d="M310.694 12.3311H335.966V33.2966H310.694V12.3311Z" fill="black"/>
</g>
</g>
</g>
<g clip-path="url(#clip6_0_12718)">
<g clip-path="url(#clip7_0_12718)">
<mask id="mask4_0_12718" style="mask-type:luminance" maskUnits="userSpaceOnUse" x="293" y="17" width="18" height="12">
<path fill-rule="evenodd" clip-rule="evenodd" d="M294.667 24.3337H295.667C296.219 24.3337 296.667 24.7814 296.667 25.3337V27.3337C296.667 27.8859 296.219 28.3337 295.667 28.3337H294.667C294.115 28.3337 293.667 27.8859 293.667 27.3337V25.3337C293.667 24.7814 294.115 24.3337 294.667 24.3337ZM299.334 22.3337H300.334C300.886 22.3337 301.334 22.7814 301.334 23.3337V27.3337C301.334 27.8859 300.886 28.3337 300.334 28.3337H299.334C298.781 28.3337 298.334 27.8859 298.334 27.3337V23.3337C298.334 22.7814 298.781 22.3337 299.334 22.3337ZM304 20.0003H305C305.553 20.0003 306 20.448 306 21.0003V27.3337C306 27.8859 305.553 28.3337 305 28.3337H304C303.448 28.3337 303 27.8859 303 27.3337V21.0003C303 20.448 303.448 20.0003 304 20.0003ZM308.667 17.667H309.667C310.219 17.667 310.667 18.1147 310.667 18.667V27.3337C310.667 27.8859 310.219 28.3337 309.667 28.3337H308.667C308.115 28.3337 307.667 27.8859 307.667 27.3337V18.667C307.667 18.1147 308.115 17.667 308.667 17.667Z" fill="white"/>
</mask>
<g mask="url(#mask4_0_12718)">
<path d="M288.667 12.667H315.667V33.3337H288.667V12.667Z" fill="black"/>
</g>
</g>
</g>
<g clip-path="url(#clip8_0_12718)">
<path d="M37.6264 19.018C38.849 19.018 39.787 19.438 40.4404 20.278C41.103 21.1087 41.4344 22.2987 41.4344 23.848C41.4344 24.9493 41.2757 25.8967 40.9584 26.69C40.6504 27.474 40.2024 28.076 39.6144 28.496C39.0357 28.9067 38.3357 29.112 37.5144 29.112C36.9357 29.112 36.371 29.0093 35.8204 28.804C35.279 28.5987 34.803 28.3047 34.3924 27.922L34.8964 26.858C35.7924 27.5767 36.651 27.936 37.4724 27.936C38.275 27.936 38.8957 27.586 39.3344 26.886C39.773 26.1767 39.9924 25.1733 39.9924 23.876V23.848C39.787 24.324 39.451 24.702 38.9844 24.982C38.527 25.2527 38.009 25.388 37.4304 25.388C36.8424 25.388 36.315 25.2573 35.8484 24.996C35.3817 24.7253 35.0177 24.352 34.7564 23.876C34.5044 23.4 34.3784 22.854 34.3784 22.238C34.3784 21.622 34.5184 21.0713 34.7984 20.586C35.0784 20.0913 35.461 19.7087 35.9464 19.438C36.441 19.158 37.001 19.018 37.6264 19.018ZM37.6964 24.212C38.2844 24.212 38.7604 24.03 39.1244 23.666C39.4977 23.2927 39.6844 22.8073 39.6844 22.21C39.6844 21.6033 39.5024 21.118 39.1384 20.754C38.7744 20.3807 38.2937 20.194 37.6964 20.194C37.1177 20.194 36.651 20.3807 36.2964 20.754C35.951 21.118 35.7784 21.6033 35.7784 22.21C35.7784 22.8073 35.951 23.2927 36.2964 23.666C36.651 24.03 37.1177 24.212 37.6964 24.212ZM42.9588 22.168H44.6248V23.834H42.9588V22.168ZM42.9588 27.334H44.6248V29H42.9588V27.334ZM53.4247 25.808V26.956H51.9827V29H50.5687V26.956H46.1307V25.878L50.8067 19.13H51.9827V25.808H53.4247ZM47.5447 25.808H50.5687V21.44L47.5447 25.808ZM59.1911 27.81H61.3611V29H55.5931V27.81H57.7491V20.852L56.0271 21.902L55.4111 20.824L58.1551 19.13H59.1911V27.81Z" fill="black"/>
</g>
</g>
</g>
<defs>
<clipPath id="clip0_0_12718">
<rect width="375" height="812" fill="white"/>
</clipPath>
<clipPath id="clip1_0_12718">
<rect width="375" height="44" fill="white"/>
</clipPath>
<clipPath id="clip2_0_12718">
<rect width="24.328" height="11.3333" fill="white" transform="translate(336 17.333)"/>
</clipPath>
<clipPath id="clip3_0_12718">
<rect width="22" height="11.3333" fill="white" transform="translate(336 17.333)"/>
</clipPath>
<clipPath id="clip4_0_12718">
<rect width="15.2724" height="10.9656" fill="white" transform="translate(315.694 17.3311)"/>
</clipPath>
<clipPath id="clip5_0_12718">
<rect width="15.2724" height="10.9656" fill="white" transform="translate(315.694 17.3311)"/>
</clipPath>
<clipPath id="clip6_0_12718">
<rect width="17" height="10.6667" fill="white" transform="translate(293.667 17.667)"/>
</clipPath>
<clipPath id="clip7_0_12718">
<rect width="17" height="10.6667" fill="white" transform="translate(293.667 17.667)"/>
</clipPath>
<clipPath id="clip8_0_12718">
<rect width="54" height="17.9999" fill="white" transform="translate(21 13)"/>
</clipPath>
</defs>
</svg>
